<svg xmlns="http://www.w3.org/2000/svg" width="1600" height="1067" viewBox="0 0 1600 1067">
<rect width="1600" height="1067" fill="#e7e1ee"/><circle cx="1370" cy="150" r="380" fill="#c7c1e1"/><circle cx="80" cy="1100" r="430" fill="#d9dec3"/>
<g fill="#342450"><circle cx="20" cy="85" r="10"/><circle cx="690" cy="85" r="10"/><circle cx="895" cy="85" r="10"/><circle cx="350" cy="490" r="10"/><circle cx="850" cy="290" r="10"/><circle cx="1380" cy="680" r="10"/></g>
<rect x="75" y="65" width="500" height="62" rx="31" fill="#342450"/><text x="100" y="107" font-family="DejaVu Sans, sans-serif" font-size="30" font-weight="700" fill="#fff">PRAGUE CURATED FOOD</text>
<text x="82" y="245" font-family="DejaVu Sans, sans-serif" font-size="76" font-weight="700" fill="#342450"><tspan x="82" dy="0">The Eatery</tspan></text>
<text x="84" y="300" font-family="DejaVu Sans, sans-serif" font-size="28" fill="#342450"><tspan x="84" dy="0">Contemporary Czech bistro cooking from an open</tspan><tspan x="84" dy="40">kitchen</tspan></text>
<ellipse cx="1220" cy="590" rx="270" ry="170" fill="#f8f4e7" stroke="#342450" stroke-width="7"/><ellipse cx="1220" cy="590" rx="185" ry="110" fill="#8d71ca"/><rect x="1070" y="545" width="175" height="85" rx="28" fill="#895144" stroke="#342450" stroke-width="5"/><circle cx="1325" cy="545" r="32" fill="#5b924f" stroke="#342450" stroke-width="4"/><circle cx="1365" cy="620" r="32" fill="#5b924f" stroke="#342450" stroke-width="4"/>
<rect x="76" y="640" width="850" height="305" rx="48" fill="#fff" stroke="#342450" stroke-width="4"/><text x="116" y="700" font-family="DejaVu Sans, sans-serif" font-size="25" font-weight="700" fill="#342450">WHY TO GO</text>
<text x="116" y="755" font-family="DejaVu Sans, sans-serif" font-size="31" fill="#342450"><tspan x="116" dy="0">current seasonal Czech main; one current</tspan><tspan x="116" dy="48">starter; one current dessert</tspan></text>
<text x="82" y="1010" font-family="DejaVu Sans, sans-serif" font-size="24" font-weight="700" fill="#342450">CONFIRMED OPEN • VERIFIED 2026-08-11</text>
<text x="1370" y="1010" font-family="DejaVu Sans, sans-serif" font-size="22" font-weight="700" fill="#342450">GOOD SHIT</text>
</svg>