<svg xmlns="http://www.w3.org/2000/svg" width="1600" height="1067" viewBox="0 0 1600 1067">
<rect width="1600" height="1067" fill="#e1eee4"/><circle cx="1370" cy="150" r="380" fill="#c1e1d5"/><circle cx="80" cy="1100" r="430" fill="#dec3dd"/>
<g fill="#3e5024"><circle cx="20" cy="85" r="10"/><circle cx="690" cy="85" r="10"/><circle cx="895" cy="85" r="10"/><circle cx="350" cy="490" r="10"/><circle cx="850" cy="290" r="10"/><circle cx="1380" cy="680" r="10"/></g>
<rect x="75" y="65" width="500" height="62" rx="31" fill="#3e5024"/><text x="100" y="107" font-family="DejaVu Sans, sans-serif" font-size="30" font-weight="700" fill="#fff">PRAGUE FOOD DISCOVERY</text>
<text x="82" y="245" font-family="DejaVu Sans, sans-serif" font-size="76" font-weight="700" fill="#3e5024"><tspan x="82" dy="0">Kus Koláče</tspan></text>
<text x="84" y="300" font-family="DejaVu Sans, sans-serif" font-size="28" fill="#3e5024"><tspan x="84" dy="0">Modern Czech koláče with rotating seasonal</tspan><tspan x="84" dy="40">fillings</tspan></text>
<ellipse cx="1220" cy="580" rx="250" ry="150" fill="#f6e2b3" stroke="#3e5024" stroke-width="7"/><path d="M1080 520q35 100 70 0M1150 520q35 100 70 0M1220 520q35 100 70 0M1290 520q35 100 70 0M1360 520q35 100 70 0" fill="none" stroke="#b57d44" stroke-width="14"/><circle cx="1220" cy="580" r="60" fill="#7eca71"/>
<rect x="76" y="640" width="850" height="305" rx="48" fill="#fff" stroke="#3e5024" stroke-width="4"/><text x="116" y="700" font-family="DejaVu Sans, sans-serif" font-size="25" font-weight="700" fill="#3e5024">WHAT TO ORDER</text>
<text x="116" y="755" font-family="DejaVu Sans, sans-serif" font-size="31" fill="#3e5024"><tspan x="116" dy="0">One traditional-leaning koláč and one unusual</tspan><tspan x="116" dy="48">current flavour</tspan></text>
<text x="82" y="1010" font-family="DejaVu Sans, sans-serif" font-size="24" font-weight="700" fill="#3e5024">CONFIRMED OPEN • VERIFIED 2026-08-07</text>
<text x="1370" y="1010" font-family="DejaVu Sans, sans-serif" font-size="22" font-weight="700" fill="#3e5024">GOOD SHIT</text>
</svg>