<svg xmlns="http://www.w3.org/2000/svg" width="1600" height="1067" viewBox="0 0 1600 1067">
<rect width="1600" height="1067" fill="#eee7e1"/><circle cx="1370" cy="150" r="380" fill="#e1d1c1"/><circle cx="80" cy="1100" r="430" fill="#c3d9de"/>
<g fill="#503524"><circle cx="20" cy="85" r="10"/><circle cx="690" cy="85" r="10"/><circle cx="895" cy="85" r="10"/><circle cx="350" cy="490" r="10"/><circle cx="850" cy="290" r="10"/><circle cx="1380" cy="680" r="10"/></g>
<rect x="75" y="65" width="500" height="62" rx="31" fill="#503524"/><text x="100" y="107" font-family="DejaVu Sans, sans-serif" font-size="30" font-weight="700" fill="#fff">ORDERING INTELLIGENCE</text>
<text x="82" y="245" font-family="DejaVu Sans, sans-serif" font-size="62" font-weight="700" fill="#503524"><tspan x="82" dy="0">Bánh cuốn Huyền Long</tspan></text>
<text x="84" y="300" font-family="DejaVu Sans, sans-serif" font-size="28" fill="#503524"><tspan x="84" dy="0">Vietnamese steamed rice-sheet specialist</tspan></text>
<ellipse cx="1220" cy="485" rx="250" ry="100" fill="#f5e4b9" stroke="#503524" stroke-width="7"/><path d="M970 485 Q985 700 1220 720 Q1455 700 1470 485" fill="#caa071" stroke="#503524" stroke-width="7"/><path d="M1040 520 q60 70 120 0M1110 520 q60 70 120 0M1180 520 q60 70 120 0M1250 520 q60 70 120 0M1320 520 q60 70 120 0" fill="none" stroke="#b9823f" stroke-width="9"/><line x1="1310" y1="390" x2="1460" y2="300" stroke="#503524" stroke-width="8"/><line x1="1350" y1="415" x2="1500" y2="325" stroke="#503524" stroke-width="8"/>
<rect x="76" y="640" width="850" height="305" rx="48" fill="#fff" stroke="#503524" stroke-width="4"/><text x="116" y="700" font-family="DejaVu Sans, sans-serif" font-size="25" font-weight="700" fill="#503524">WHY / HOW TO ORDER</text>
<text x="116" y="755" font-family="DejaVu Sans, sans-serif" font-size="31" fill="#503524"><tspan x="116" dy="0">Show or say „bánh cuốn“; no secret-menu request</tspan><tspan x="116" dy="48">is required. Best value: Order the core bánh</tspan><tspan x="116" dy="48">cuốn first; share phở cuốn rather than</tspan><tspan x="116" dy="48">duplicating…</tspan></text>
<text x="82" y="1010" font-family="DejaVu Sans, sans-serif" font-size="24" font-weight="700" fill="#503524">CONFIRMED OPEN • VERIFIED 2026-08-07</text>
<text x="1370" y="1010" font-family="DejaVu Sans, sans-serif" font-size="22" font-weight="700" fill="#503524">GOOD SHIT</text>
</svg>